<svg xmlns="http://www.w3.org/2000/svg" viewBox="0 0 24 24">
  <path d="M7.125 0.9375C4.007813 2.199219 1.492188 4.65625 0.125 7.71875L2.03125 8.34375C3.175781 5.898438 5.199219 3.9375 7.6875 2.875 Z M 16.875 0.9375L16.3125 2.875C18.800781 3.9375 20.824219 5.902344 21.96875 8.34375L23.875 7.71875C22.507813 4.65625 19.992188 2.199219 16.875 0.9375 Z M 12 4C6.476563 4 2 8.476563 2 14C2 19.523438 6.476563 24 12 24C17.523438 24 22 19.523438 22 14C22 8.476563 17.523438 4 12 4 Z M 12 6C16.417969 6 20 9.582031 20 14C20 18.417969 16.417969 22 12 22C7.582031 22 4 18.417969 4 14C4 9.582031 7.582031 6 12 6 Z M 11.5 7L11.125 14.0625L11.34375 14.90625L16.25 19.3125L17.0625 18.5L12.875 13.96875L12.53125 7Z" fill="#00A1FF" />
</svg>