<svg xmlns="http://www.w3.org/2000/svg" viewBox="0 0 32 32">
  <path d="M16 4C12.141 4 9 7.14 9 11C9 13.410539 10.22613 15.539256 12.085938 16.798828C8.5117651 18.32509 6 21.874438 6 26L8 26C8 21.589 11.589 18 16 18L16 16C13.243 16 11 13.757 11 11C11 8.243 13.243 6 16 6C18.757 6 21 8.243 21 11C21 12.641 20.19375 14.088 18.96875 15L21.736328 15C22.530328 13.865 23 12.487 23 11C23 7.14 19.859 4 16 4 z M 21 17L21 18L18 18L18 32L32 32L32 18L29 18L29 17L27 17L27 18L23 18L23 17L21 17 z M 20 20L21 20L21 21L23 21L23 20L27 20L27 21L29 21L29 20L30 20L30 22L20 22L20 20 z M 20 24L30 24L30 30L20 30L20 24 z M 26 26L26 28L28 28L28 26L26 26 z" fill="#382B2B" />
</svg>