<svg xmlns="http://www.w3.org/2000/svg" viewBox="0 0 50 50">
  <path d="M34.21875 2.125L33.65625 2.9375L24.75 15.84375L17.03125 18.125C16.007813 18.433594 15.140625 19.101563 14.5625 20L8.15625 29.90625L12.21875 43.6875L19.625 42.0625C19.8125 42.023438 20 41.957031 20.1875 41.90625C22 41.296875 23.585938 40.199219 24.78125 38.6875L25.71875 37.34375L29.96875 40.3125L30.78125 40.875L31.375 40.03125L49.4375 13.84375L50.03125 13.03125L49.1875 12.46875L35.0625 2.6875 Z M 34.75 4.90625L47.25 13.5625L40.21875 23.75C41.074219 20.855469 39.707031 17.355469 36.6875 15.28125C34.957031 14.09375 32.945313 13.539063 31 13.71875C29.851563 13.824219 28.816406 14.179688 27.9375 14.75 Z M 38.90625 10.875C38.371094 10.871094 37.855469 11.117188 37.53125 11.59375C37.011719 12.351563 37.207031 13.414063 37.96875 13.9375C38.730469 14.460938 39.761719 14.257813 40.28125 13.5C40.800781 12.742188 40.605469 11.710938 39.84375 11.1875C39.558594 10.992188 39.226563 10.878906 38.90625 10.875 Z M 25.375 18.46875C25.082031 19.859375 25.269531 21.386719 25.90625 22.8125L26.6875 22.125C27.597656 21.382813 28.761719 21 29.9375 21C31.261719 21 32.511719 21.488281 33.46875 22.40625C35.03125 23.902344 35.449219 26.15625 34.65625 28.0625C35.972656 27.949219 37.15625 27.488281 38.125 26.75L30.28125 38.09375L26.875 35.75L32.375 28.03125C33.367188 26.769531 33.25 24.953125 32.09375 23.84375C30.957031 22.753906 29.1875 22.691406 27.96875 23.6875L22.3125 28.40625L19.96875 27 Z M 6.09375 30.03125L0 31.90625L5.03125 48.9375L11.15625 47.0625Z" fill="#382B2B" />
</svg>