<svg xmlns="http://www.w3.org/2000/svg" viewBox="0 0 32 32">
  <path d="M10.15625 4L10 4.8125L9 10.4375L9 14L9.09375 14C9.382813 15.992188 10.496094 17.730469 12.09375 18.8125C8.527344 20.34375 6 23.882813 6 28L8 28C8 25.46875 9.171875 23.214844 11 21.75L11 22.40625L11.28125 22.71875L15.28125 26.71875L16 27.40625L16.71875 26.71875L20.71875 22.71875L21 22.40625L21 21.75C22.828125 23.214844 24 25.46875 24 28L26 28C26 23.882813 23.472656 20.34375 19.90625 18.8125C21.503906 17.730469 22.617188 15.992188 22.90625 14L23 14L23 10.4375L22 4.8125L21.84375 4 Z M 11.84375 6L20.15625 6L21 10.78125L21 12L11 12L11 10.78125 Z M 15 7L15 8L14 8L14 10L15 10L15 11L17 11L17 10L18 10L18 8L17 8L17 7 Z M 11.09375 14L20.90625 14C20.441406 16.285156 18.425781 18 16 18C13.574219 18 11.558594 16.285156 11.09375 14 Z M 16 20C17.058594 20 18.074219 20.191406 19 20.5625L19 21.5625L16 24.5625L13 21.5625L13 20.5625C13.925781 20.191406 14.941406 20 16 20Z" fill="#00A1FF" />
</svg>