<svg xmlns="http://www.w3.org/2000/svg" viewBox="0 0 50 50">
  <path d="M16 2C14.300781 2 13 3.300781 13 5L13 7L3 7C2.96875 7 2.9375 7 2.90625 7C2.875 7 2.84375 7 2.8125 7C2.261719 7.050781 1.855469 7.542969 1.90625 8.09375C1.957031 8.644531 2.449219 9.050781 3 9L13 9L13 11C13 12.699219 14.300781 14 16 14L18 14C19.699219 14 21 12.699219 21 11L21 5C21 3.300781 19.699219 2 18 2 Z M 22 7L22 9L47 9C47.359375 9.003906 47.695313 8.816406 47.878906 8.503906C48.058594 8.191406 48.058594 7.808594 47.878906 7.496094C47.695313 7.183594 47.359375 6.996094 47 7 Z M 34 19C32.300781 19 31 20.300781 31 22L31 24L3 24C2.96875 24 2.9375 24 2.90625 24C2.875 24 2.84375 24 2.8125 24C2.261719 24.050781 1.855469 24.542969 1.90625 25.09375C1.957031 25.644531 2.449219 26.050781 3 26L31 26L31 28C31 29.699219 32.300781 31 34 31L36 31C37.699219 31 39 29.699219 39 28L39 22C39 20.300781 37.699219 19 36 19 Z M 40 24L40 26L47 26C47.359375 26.003906 47.695313 25.816406 47.878906 25.503906C48.058594 25.191406 48.058594 24.808594 47.878906 24.496094C47.695313 24.183594 47.359375 23.996094 47 24 Z M 13 36C11.300781 36 10 37.300781 10 39L10 41L3 41C2.96875 41 2.9375 41 2.90625 41C2.875 41 2.84375 41 2.8125 41C2.261719 41.050781 1.855469 41.542969 1.90625 42.09375C1.957031 42.644531 2.449219 43.050781 3 43L10 43L10 45C10 46.699219 11.300781 48 13 48L15 48C16.699219 48 18 46.699219 18 45L18 39C18 37.300781 16.699219 36 15 36 Z M 19 41L19 43L47 43C47.359375 43.003906 47.695313 42.816406 47.878906 42.503906C48.058594 42.191406 48.058594 41.808594 47.878906 41.496094C47.695313 41.183594 47.359375 40.996094 47 41Z" fill="#382B2B" />
</svg>