<svg xmlns="http://www.w3.org/2000/svg" viewBox="0 0 24 24">
  <path d="M10,8c-3.309,0-6,2.691-6,6c0,1.294,0.416,2.49,1.115,3.471L3.5,19.086l-0.793-0.793 c-0.391-0.391-1.023-0.391-1.414,0s-0.391,1.023,0,1.414L2.086,20.5l-0.793,0.793c-0.391,0.391-0.391,1.024,0,1.414 C1.488,22.902,1.744,23,2,23s0.512-0.098,0.707-0.293L3.5,21.914l0.793,0.793C4.488,22.902,4.744,23,5,23s0.512-0.098,0.707-0.293 c0.391-0.391,0.391-1.023,0-1.414L4.914,20.5l1.615-1.615C7.51,19.584,8.706,20,10,20c3.309,0,6-2.691,6-6S13.309,8,10,8z M10,18 c-2.206,0-4-1.794-4-4s1.794-4,4-4s4,1.794,4,4S12.206,18,10,18z" opacity=".35" fill="#382B2B" />
  <path d="M22,6c-0.26,0-0.516-0.102-0.707-0.293l-3-3c-0.286-0.286-0.372-0.716-0.217-1.09C18.23,1.244,18.596,1,19,1h3 c0.553,0,1,0.448,1,1v3c0,0.404-0.243,0.769-0.617,0.924C22.259,5.975,22.129,6,22,6z" fill="#382B2B" />
  <path d="M18,7c-0.256,0-0.512-0.098-0.707-0.293c-0.391-0.391-0.391-1.023,0-1.414l3-3c0.391-0.391,1.023-0.391,1.414,0 s0.391,1.023,0,1.414l-3,3C18.512,6.902,18.256,7,18,7z" fill="#382B2B" />
  <path d="M14,4c-3.31,0-6,2.69-6,6c0,3.13,2.41,5.71,5.48,5.97C13.81,15.39,14,14.72,14,14c-2.21,0-4-1.79-4-4c0-2.21,1.79-4,4-4 s4,1.79,4,4c0,1.49-0.81,2.79-2.02,3.47C15.99,13.65,16,13.82,16,14c0,0.61-0.09,1.19-0.26,1.74C18.2,15,20,12.71,20,10 C20,6.69,17.31,4,14,4z" fill="#382B2B" />
</svg>