<?xml version="1.0" encoding="utf-8"?>
<svg xmlns="http://www.w3.org/2000/svg" viewBox="0 0 24 24" width="480" height="480">
  <path d="M12 3C7.593562 3 4 6.593562 4 11L4 12C2.9 12 2 12.9 2 14L2 16C2 17.1 2.9 18 4 18L6 18L6 13L6 12L6 11C6 7.674438 8.674438 5 12 5C15.325562 5 18 7.674438 18 11L18 12L18 13L18 18L18 19L13.912109 19 A 1.5 1.5 0 0 0 12.5 18 A 1.5 1.5 0 0 0 11 19.5 A 1.5 1.5 0 0 0 12.392578 20.994141 A 1.0001 1.0001 0 0 0 12.5 21L18 21C19.093063 21 20 20.093063 20 19L20 18C21.1 18 22 17.1 22 16L22 14C22 12.9 21.1 12 20 12L20 11C20 6.593562 16.406438 3 12 3 z" fill="#F5F9FA" />
</svg>