<svg xmlns="http://www.w3.org/2000/svg" viewBox="0 0 48 48">
  <path d="M24 5.0507812C22.795727 5.0507812 21.591071 5.44092 20.595703 6.2246094 A 1.50015 1.50015 0 0 0 20.595703 6.2265625L8.859375 15.474609C7.0554772 16.896241 6 19.068584 6 21.365234L6 38.5C6 40.967501 8.0324991 43 10.5 43L37.5 43C39.967501 43 42 40.967501 42 38.5L42 21.365234C42 19.068584 40.944523 16.896241 39.140625 15.474609L27.404297 6.2265625 A 1.50015 1.50015 0 0 0 27.404297 6.2246094C26.408929 5.4409169 25.204273 5.0507813 24 5.0507812 z M 24 8.0429688C24.545227 8.0429688 25.091196 8.2217207 25.548828 8.5820312L37.285156 17.830078C38.369258 18.684447 39 19.985885 39 21.365234L39 38.5C39 39.346499 38.346499 40 37.5 40L10.5 40C9.6535009 40 9 39.346499 9 38.5L9 21.365234C9 19.985885 9.6307412 18.684447 10.714844 17.830078L22.451172 8.5820312C22.908804 8.2217206 23.454773 8.0429688 24 8.0429688 z M 23.976562 17.978516 A 1.50015 1.50015 0 0 0 22.5 19.5L22.5 25L17 25 A 1.50015 1.50015 0 1 0 17 28L22.5 28L22.5 33.5 A 1.50015 1.50015 0 1 0 25.5 33.5L25.5 28L31 28 A 1.50015 1.50015 0 1 0 31 25L25.5 25L25.5 19.5 A 1.50015 1.50015 0 0 0 23.976562 17.978516 z" fill="#00A1FF" />
</svg>