<?xml version="1.0" encoding="utf-8"?>
<svg xmlns="http://www.w3.org/2000/svg" viewBox="0 0 40 40" width="480" height="480">
  <path fill="#dff0fe" d="M20,38.5C9.799,38.5,1.5,30.201,1.5,20S9.799,1.5,20,1.5S38.5,9.799,38.5,20S30.201,38.5,20,38.5z" />
  <path fill="#4788c7" d="M20,2c9.925,0,18,8.075,18,18s-8.075,18-18,18S2,29.925,2,20S10.075,2,20,2 M20,1 C9.507,1,1,9.507,1,20s8.507,19,19,19s19-8.507,19-19S30.493,1,20,1L20,1z" />
  <path fill="#b6dcfe" d="M1.517,20.5C1.507,20.335,1.5,20.168,1.5,20c0-10.033,8.03-18.227,18-18.493V20.5H1.517z" />
  <path fill="#4788c7" d="M19,2.027V20H2C2,10.41,9.538,2.548,19,2.027 M20,1C9.507,1,1,9.507,1,20 c0,0.338,0.027,0.668,0.05,1H20V1L20,1z" />
  <g>
    <path fill="#98ccfd" d="M20,38.5c-10.033,0-18.227-8.029-18.493-18h18.289L32.86,33.3C29.393,36.657,24.846,38.5,20,38.5z" />
    <path fill="#4788c7" d="M19.592,21l12.546,12.293C28.815,36.336,24.542,38,20,38c-9.59,0-17.452-7.538-17.973-17H19.592 M20,20H1c0,10.493,8.507,19,19,19c5.317,0,10.123-2.184,13.572-5.703L20,20L20,20z" />
  </g>
  <g>
    <path fill="#b6dcfe" d="M29.209,1.668c4.047,1.793,7.197,5.012,8.903,9.112c0.099,0.237,0.184,0.478,0.266,0.718 L23.56,17.662L29.209,1.668z" />
    <path fill="#4788c7" d="M29.498,2.353c3.693,1.778,6.566,4.806,8.152,8.62c0.034,0.081,0.066,0.163,0.097,0.246 l-13.341,5.55L29.498,2.353 M28.915,1l-6.201,17.555L39,11.78c-0.134-0.399-0.263-0.798-0.427-1.192 C36.686,6.053,33.13,2.72,28.915,1L28.915,1z" />
  </g>
</svg>