<?xml version="1.0" encoding="utf-8"?>
<!-- Svg Vector Icons : http://www.onlinewebfonts.com/icon -->
<!DOCTYPE svg PUBLIC "-//W3C//DTD SVG 1.1//EN" "http://www.w3.org/Graphics/SVG/1.1/DTD/svg11.dtd">
<svg version="1.1" xmlns="http://www.w3.org/2000/svg" xmlns:xlink="http://www.w3.org/1999/xlink" x="0px" y="0px" viewBox="0 0 256 256" enable-background="new 0 0 256 256" xml:space="preserve">
<metadata> Svg Vector Icons : http://www.onlinewebfonts.com/icon </metadata>
<g><g><g><g><path fill="#000000" d="M19.4,94.6c5.2,0,9.4-4.2,9.4-9.4V28.8h56.4c5.2,0,9.4-4.2,9.4-9.4c0-5.2-4.2-9.4-9.4-9.4H19.4c-5.2,0-9.4,4.2-9.4,9.4v65.8C10,90.4,14.2,94.6,19.4,94.6z"/><path fill="#000000" d="M170.8,28.8h56.4v56.4c0,5.2,4.2,9.4,9.4,9.4s9.4-4.2,9.4-9.4V19.4c0-5.2-4.2-9.4-9.4-9.4h-65.8c-5.2,0-9.4,4.2-9.4,9.4C161.4,24.6,165.6,28.8,170.8,28.8z"/><path fill="#000000" d="M170.8,246h65.8c5.2,0,9.4-4.2,9.4-9.4v-65.8c0-5.2-4.2-9.4-9.4-9.4s-9.4,4.2-9.4,9.4v56.4h-56.4c-5.2,0-9.4,4.2-9.4,9.4S165.6,246,170.8,246z"/><path fill="#000000" d="M19.4,246h65.8c5.2,0,9.4-4.2,9.4-9.4c0-5.2-4.2-9.4-9.4-9.4H28.8v-56.4c0-5.2-4.2-9.4-9.4-9.4s-9.4,4.2-9.4,9.4v65.8C10,241.8,14.2,246,19.4,246z"/></g></g><g></g><g></g><g></g><g></g><g></g><g></g><g></g><g></g><g></g><g></g><g></g><g></g><g></g><g></g><g></g></g></g>
</svg>