<?xml version="1.0" encoding="utf-8"?>
<svg xmlns="http://www.w3.org/2000/svg" viewBox="0 0 40 40" width="50" height="50">
  <path fill="#f78f8f" d="M19.999,38.458C18.292,37.715,4.635,30.984,4.501,6.367L20,1.524l15.499,4.843 C35.365,30.919,21.707,37.708,19.999,38.458z" />
  <path fill="#c74343" d="M20,2.048l14.996,4.686c-0.258,23.19-12.752,30.119-15,31.177 C17.735,36.869,5.26,30.057,5.004,6.734L20,2.048 M20,1L4,6c0,27.141,16,33,16,33s16-5.932,16-33L20,1L20,1z" />
  <path fill="none" stroke="#fff" stroke-width="3" d="M14 24L26 12M14 12L26 24" />
</svg>