<svg xmlns="http://www.w3.org/2000/svg" viewBox="0 0 30 30">
  <path d="M7 2 A 2 2 0 0 0 5.2695312 3L5 3C3.9069372 3 3 3.9069372 3 5L3 11C3 14.362048 5.0941036 17.245255 8.0429688 18.425781C8.2025627 19.540561 8.9669999 20.44944 10 20.816406L10 21C10 24.301625 12.698375 27 16 27L19 27C22.301625 27 25 24.301625 25 21L25 16.826172 A 3 3 0 0 0 27 14 A 3 3 0 0 0 24 11 A 3 3 0 0 0 21 14 A 3 3 0 0 0 23 16.824219L23 21C23 23.220375 21.220375 25 19 25L16 25C13.779625 25 12 23.220375 12 21L12 20.816406C13.033 20.44944 13.797437 19.540561 13.957031 18.425781C16.905896 17.245255 19 14.362048 19 11L19 5C19 3.9069372 18.093063 3 17 3L16.728516 3 A 2 2 0 0 0 15 2 A 2 2 0 0 0 13 4 A 2 2 0 0 0 15 6 A 2 2 0 0 0 16.730469 5L17 5L17 11C17 14.325562 14.325562 17 11 17C7.674438 17 5 14.325562 5 11L5 5L5.2714844 5 A 2 2 0 0 0 7 6 A 2 2 0 0 0 9 4 A 2 2 0 0 0 7 2 z" fill="#00A3E8" />
</svg>