<svg xmlns="http://www.w3.org/2000/svg" viewBox="0 0 24 24"><path d="M16,22h-4c-2.206,0-4-1.794-4-4v-6h2v6c0,1.103,0.897,2,2,2h4c1.103,0,2-0.897,2-2v-1h2v1C20,20.206,18.206,22,16,22z" opacity=".35"/><path d="M11,11H7c-0.552,0-1,0.448-1,1l0,0.83c0,1.625,1.217,3.08,2.839,3.165C10.569,16.086,12,14.71,12,13v-1C12,11.448,11.552,11,11,11z"/><circle cx="19" cy="15" r="3"/><circle cx="12" cy="3" r="1"/><circle cx="6" cy="3" r="1"/><path d="M9,14c-3.86,0-7-3.141-7-7V4c0-1.103,0.897-2,2-2h2v2H4l0.001,2.976C4,9.757,6.243,12,9,12s5-2.243,5-5V4h-2V2h2c1.103,0,2,0.897,2,2v2.977C16,10.859,12.86,14,9,14z" opacity=".35"/></svg>