<svg xmlns="http://www.w3.org/2000/svg" xmlns:xlink="http://www.w3.org/1999/xlink" xmlns:serif="http://www.serif.com/" viewBox="0 0 32 40" version="1.1" xml:space="preserve" style="" x="0px" y="0px" fill-rule="evenodd" clip-rule="evenodd" stroke-linejoin="round" stroke-miterlimit="2"><g transform="matrix(1,0,0,1,-52,-208)"><g transform="matrix(0.21157,0,0,0.177778,52,208)"><rect x="0" y="0" width="151.25" height="180" style="" fill="none"/><clipPath id="a"><rect x="0" y="0" width="151.25" height="180"/></clipPath><g clip-path="url(#a)"><g transform="matrix(6.75223,0,0,10.2273,-380.151,-2075.63)"><path d="M78.7,210.1C78.7,209.662 78.479,209.243 78.085,208.933C77.691,208.624 77.157,208.45 76.6,208.45C72.782,208.45 62.218,208.45 58.4,208.45C57.843,208.45 57.309,208.624 56.915,208.933C56.521,209.243 56.3,209.662 56.3,210.1C56.3,212.208 56.3,216.792 56.3,218.9C56.3,219.338 56.521,219.757 56.915,220.067C57.309,220.376 57.843,220.55 58.4,220.55C62.218,220.55 72.782,220.55 76.6,220.55C77.157,220.55 77.691,220.376 78.085,220.067C78.479,219.757 78.7,219.338 78.7,218.9L78.7,210.1ZM77.3,210.1L77.3,218.9C77.3,219.046 77.226,219.186 77.095,219.289C76.964,219.392 76.786,219.45 76.6,219.45C72.782,219.45 62.218,219.45 58.4,219.45C58.214,219.45 58.036,219.392 57.905,219.289C57.774,219.186 57.7,219.046 57.7,218.9C57.7,216.792 57.7,212.208 57.7,210.1C57.7,209.954 57.774,209.814 57.905,209.711C58.036,209.608 58.214,209.55 58.4,209.55C62.218,209.55 72.782,209.55 76.6,209.55C76.786,209.55 76.964,209.608 77.095,209.711C77.226,209.814 77.3,209.954 77.3,210.1Z"/></g><g transform="matrix(4.72656,0,0,5.625,-2.84217e-14,39.375)"><path d="M18,16L17,16C17,15.448 16.552,15 16,15C16,15 16,14 16,14L16,15C14.343,15 13,13.657 13,12C13,12 14,12 14,12L13,12C13,10.343 14.343,9 16,9L18,9C18.552,9 19,9.448 19,10C19,10.552 18.552,11 18,11L16,11C15.448,11 15,11.448 15,12C15,12 14,12 14,12L15,12C15,12.552 15.448,13 16,13C16,13 16,14 16,14L16,13C17.657,13 19,14.343 19,16C19,16 18,16 18,16L19,16C19,17.657 17.657,19 16,19L14,19C13.448,19 13,18.552 13,18C13,17.448 13.448,17 14,17L16,17C16.552,17 17,16.552 17,16L18,16ZM18,16C18,16 17,16 17,16L18,16Z"/></g><g transform="matrix(4.72656,0,0,5.625,-2.84217e-14,39.375)"><path d="M17,20L17,18C17,17.448 16.552,17 16,17C15.448,17 15,17.448 15,18L15,20C15,20.552 15.448,21 16,21C16.552,21 17,20.552 17,20Z"/></g><g transform="matrix(4.72656,0,0,5.625,-2.84217e-14,-16.875)"><path d="M17,20L17,18C17,17.448 16.552,17 16,17C15.448,17 15,17.448 15,18L15,20C15,20.552 15.448,21 16,21C16.552,21 17,20.552 17,20Z"/></g><g transform="matrix(4.72656,0,0,7.5,-973.672,9.375)"><path d="M213,1L213,4C213,4.414 213.448,4.75 214,4.75C214.552,4.75 215,4.414 215,4L215,1C215,0.586 214.552,0.25 214,0.25C213.448,0.25 213,0.586 213,1Z"/></g><g transform="matrix(4.72656,0,0,7.5,-935.859,-1.875)"><path d="M213,1L213,4C213,4.414 213.448,4.75 214,4.75C214.552,4.75 215,4.414 215,4L215,1C215,0.586 214.552,0.25 214,0.25C213.448,0.25 213,0.586 213,1Z"/></g><g transform="matrix(4.72656,0,0,7.5,-898.047,9.375)"><path d="M213,1L213,4C213,4.414 213.448,4.75 214,4.75C214.552,4.75 215,4.414 215,4L215,1C215,0.586 214.552,0.25 214,0.25C213.448,0.25 213,0.586 213,1Z"/></g><g transform="matrix(2.89418e-16,5.625,-6.30208,4.59243e-16,53.5677,-1175.62)"><path d="M213,1L213,4C213,4.414 213.448,4.75 214,4.75C214.552,4.75 215,4.414 215,4L215,1C215,0.586 214.552,0.25 214,0.25C213.448,0.25 213,0.586 213,1Z"/></g><g transform="matrix(2.89418e-16,5.625,-6.30208,4.59243e-16,91.3802,-1186.87)"><path d="M213,1L213,4C213,4.414 213.448,4.75 214,4.75C214.552,4.75 215,4.414 215,4L215,1C215,0.586 214.552,0.25 214,0.25C213.448,0.25 213,0.586 213,1Z"/></g><g transform="matrix(2.89418e-16,5.625,-6.30208,4.59243e-16,129.193,-1175.62)"><path d="M213,1L213,4C213,4.414 213.448,4.75 214,4.75C214.552,4.75 215,4.414 215,4L215,1C215,0.586 214.552,0.25 214,0.25C213.448,0.25 213,0.586 213,1Z"/></g><g transform="matrix(4.72656,0,0,5.625,-245.781,-1170)"><path d="M60,222C60.552,222 61,222.448 61,223C61,223.552 60.552,224 60,224L59,224C58.735,224 58.48,224.105 58.293,224.293C58.105,224.48 58,224.735 58,225L58,226C58,226.552 57.552,227 57,227C56.448,227 56,226.552 56,226L56,225L56,224.999C56,224.204 56.316,223.441 56.879,222.879C57.441,222.316 58.204,222 59,222L60,222Z"/></g><g transform="matrix(4.72656,0,0,-5.625,-245.781,1406.25)"><path d="M60,222C60.552,222 61,222.448 61,223C61,223.552 60.552,224 60,224L59,224C58.735,224 58.48,224.105 58.293,224.293C58.105,224.48 58,224.735 58,225L58,226C58,226.552 57.552,227 57,227C56.448,227 56,226.552 56,226L56,225L56,224.999C56,224.204 56.316,223.441 56.879,222.879C57.441,222.316 58.204,222 59,222L60,222Z"/></g><g transform="matrix(-4.72656,0,0,5.625,397.031,-1170)"><path d="M60,222C60.552,222 61,222.448 61,223C61,223.552 60.552,224 60,224L59,224C58.735,224 58.48,224.105 58.293,224.293C58.105,224.48 58,224.735 58,225L58,226C58,226.552 57.552,227 57,227C56.448,227 56,226.552 56,226L56,225L56,224.999C56,224.204 56.316,223.441 56.879,222.879C57.441,222.316 58.204,222 59,222L60,222Z"/></g><g transform="matrix(-4.72656,0,0,-5.625,397.031,1406.25)"><path d="M60,222C60.552,222 61,222.448 61,223C61,223.552 60.552,224 60,224L59,224C58.735,224 58.48,224.105 58.293,224.293C58.105,224.48 58,224.735 58,225L58,226C58,226.552 57.552,227 57,227C56.448,227 56,226.552 56,226L56,225L56,224.999C56,224.204 56.316,223.441 56.879,222.879C57.441,222.316 58.204,222 59,222L60,222Z"/></g></g></g></g><text x="0" y="47" fill="#000000" font-size="5px" font-weight="bold" font-family="'Helvetica Neue', Helvetica, Arial-Unicode, Arial, Sans-serif">Created by AmruID</text><text x="0" y="52" fill="#000000" font-size="5px" font-weight="bold" font-family="'Helvetica Neue', Helvetica, Arial-Unicode, Arial, Sans-serif">from the Noun Project</text></svg>