<?xml version="1.0" encoding="utf-8"?>
<svg xmlns="http://www.w3.org/2000/svg" viewBox="0 0 50 50" width="500" height="500">
  <path d="M7 4C4.2545455 4 2 6.2545455 2 9L2 33C2 35.745455 4.2545455 38 7 38L11.085938 38C11.220961 39.200523 11.208283 40.315817 10.900391 41.248047C10.52122 42.396093 9.8083843 43.349344 8.4863281 44.142578 A 1.0001 1.0001 0 0 0 9 46C13.245543 46 18.123099 43.79182 20.578125 38L43 38C45.745455 38 48 35.745455 48 33L48 9C48 6.2545455 45.745455 4 43 4L7 4 z M 7 6L43 6C44.654545 6 46 7.3454545 46 9L46 33C46 34.654545 44.654545 36 43 36L20 36 A 1.0001 1.0001 0 0 0 19.060547 36.65625C17.502773 40.904725 14.720548 42.915018 11.828125 43.650391C12.22253 43.087683 12.589249 42.511511 12.798828 41.876953C13.319657 40.299999 13.304092 38.578758 12.984375 36.820312 A 1.0001 1.0001 0 0 0 12 36L7 36C5.3454545 36 4 34.654545 4 33L4 9C4 7.3454545 5.3454545 6 7 6 z M 15 19 A 2 2 0 0 0 13 21 A 2 2 0 0 0 15 23 A 2 2 0 0 0 17 21 A 2 2 0 0 0 15 19 z M 25 19 A 2 2 0 0 0 23 21 A 2 2 0 0 0 25 23 A 2 2 0 0 0 27 21 A 2 2 0 0 0 25 19 z M 35 19 A 2 2 0 0 0 33 21 A 2 2 0 0 0 35 23 A 2 2 0 0 0 37 21 A 2 2 0 0 0 35 19 z" fill="#FFFFFF" />
</svg>